PathFileType	4	(X/Y/Z)	28_1_31_p1_0-185.trc
DataRate	CameraRate	NumFrames	NumMarkers	Units	OrigDataRate	OrigDataStartFrame	OrigNumFrames
59.0	59.0	4	27	m	59.0	0	186
Frame#	Time	RHip			RKnee			RAnkle			RBigToe			RSmallToe			RHeel			LHip			LKnee			LAnkle			LBigToe			LSmallToe			LHeel			Neck			Head			Nose			RShoulder			RElbow			RWrist			RThumb			RIndex			RPinky			LShoulder			LElbow			LWrist			LThumb			LIndex			LPinky			
		X1	Y1	Z1	X2	Y2	Z2	X3	Y3	Z3	X4	Y4	Z4	X5	Y5	Z5	X6	Y6	Z6	X7	Y7	Z7	X8	Y8	Z8	X9	Y9	Z9	X10	Y10	Z10	X11	Y11	Z11	X12	Y12	Z12	X13	Y13	Z13	X14	Y14	Z14	X15	Y15	Z15	X16	Y16	Z16	X17	Y17	Z17	X18	Y18	Z18	X19	Y19	Z19	X20	Y20	Z20	X21	Y21	Z21	X22	Y22	Z22	X23	Y23	Z23	X24	Y24	Z24	X25	Y25	Z25	X26	Y26	Z26	X27	Y27	Z27	
0	0.0	0.21523531643817517	0.5750454230050355	0.9323977608031487	0.2179508641334752	0.8063466849387794	1.3222718759003143	0.20535905030133422	1.0253927185320404	1.7258997960098772	0.18974075787582786	0.9085663118689338	1.8031334532081438	0.24960248978304692	0.8897861675302979	1.7930027182153636	0.18809216451619098	1.1778698829359076	1.7856319135047682	-0.004563996766425742	0.6093309420563979	0.9346583118542885	0.021862574890781458	0.8056670341006751	1.3252894595455174	0.011460586898976862	1.0465358772060813	1.7400342749646798	0.02193064941074676	0.8461233280810623	1.7864323872144408	-0.031041677374580405	0.8997383609865354	1.787691557718489	0.031085291427758142	1.1319939428822132	1.7867599700704093	0.0795685509686644	0.3838407489270622	0.319242927055865	0.07842688868576549	0.2635610266839524	0.09871503467952533	0.08237108751883136	0.20575020073911052	0.25585676544442704	0.2547062957494278	0.39210647220900285	0.4215576583450752	0.2841429523522002	0.446821910418276	0.7001284866684503	0.1236764088377679	0.41782088277288965	0.9094233963988777	0.08301391493990268	0.40739340166598614	0.991831413474404	0.06512618526890182	0.46207739417310406	1.0020837926348247	0.06508196087044885	0.4621172490885917	1.001406734571754	-0.09519658801342751	0.42976254884614296	0.4061098270694842	-0.12135196356368622	0.5029871331689493	0.6878124061839371	0.023829883232777963	0.4012640964777339	0.9051871716770615	0.12437172396087567	0.39640252511923657	0.9484289162722577	0.13206504191514312	0.4088528770074241	0.9894346452847098	0.07848980468895979	0.4394121002273329	1.0149462920056682
1	0.01694915254237288	0.2145210286651603	0.57212226750564	0.9289488260742729	0.21624530544090464	0.8044747067451673	1.3221336014617995	0.20536758489696338	1.0250492629609154	1.7257874759533613	0.18553200882252927	0.8940990872623719	1.8001008607663247	0.24930012550751893	0.8893631592380452	1.7930372927612492	0.1913840718829283	1.1580831211925262	1.7819322997356584	-0.003934600287335972	0.6084811997871417	0.9340650072328353	0.020520161191811014	0.8042433764286321	1.328441671332228	0.013909916718916773	1.058517651991134	1.7373186771503182	0.02496066551616322	0.8624546694797057	1.7897030074085616	-0.028672162874681044	0.9168773270991326	1.786891408305119	0.031389600649731425	1.1338418647587494	1.7866554976571236	0.08695837302321041	0.395735244557843	0.3153970817544684	0.07844934082011323	0.2635120609714292	0.09870126740811604	0.0824460416128753	0.20589421033984182	0.25587940726483155	0.25904056797535896	0.40320051652898325	0.418642238027938	0.28841073972134973	0.4577503190746038	0.6950690086150413	0.12347080395539006	0.41846254303236685	0.9096127832887227	0.07979624680250616	0.4219051552959992	0.9959957311426106	0.06925771503923175	0.4757101068581721	1.0045648743447788	0.06911220968106611	0.4753656872204671	1.000870762801298	-0.0952870943188984	0.4294640684891775	0.40637273104867727	-0.12102391443106336	0.5037049050380703	0.6916586263598712	0.024117076995939284	0.400494410136494	0.9018715856820008	0.12428379709152186	0.39631386025847704	0.9485497419023663	0.12885795991894178	0.4207272199112054	0.9895597084744133	0.08208589455492313	0.4511818128077268	1.0142819798610245
2	0.03389830508474576	0.2189743280981411	0.5843613196101863	0.9281648385702642	0.21633043716694603	0.8048395097209471	1.322166426281326	0.20617457660610936	1.0229753001504227	1.721642821226197	0.1854516240878072	0.8940526920437196	1.8002996792199255	0.24929272201781147	0.8894040751245641	1.7931292424171428	0.19249622897637203	1.1555566508014277	1.7823799872030486	-0.003920615858273058	0.6087647561537688	0.934217108194482	0.02055882037879893	0.8042266061366545	1.3284577083703706	0.009680568292671226	1.056949188055958	1.7372829770794826	0.02482082605701454	0.862897451731691	1.7898050202158284	-0.033268095708192745	0.9180582030750095	1.787475395672401	0.03096670433643172	1.132583240109899	1.786715716777811	0.0795672997042384	0.38396266844282523	0.31917200113215105	0.07845862832171349	0.26341831986445907	0.09874510312210542	0.08246675134534502	0.20593164741170666	0.2559299735806016	0.25904719113229374	0.4031194482188193	0.41869055040616715	0.28845364775305293	0.4577638124027804	0.6950695163164274	0.12354400337050071	0.4185057260522269	0.9096385130463707	0.07888243554316159	0.4329961455376777	0.9958507819487344	0.06526474861336946	0.46340165791267174	1.0053793827508548	0.06917701058582856	0.4752570279627848	1.0006604088753077	-0.09525571855007711	0.429378731976024	0.4064315928542911	-0.12125047285198547	0.5031735088386394	0.6882121887797121	0.023883238992053447	0.4014753961826491	0.9051945710054161	0.12428139038397014	0.3963794033790874	0.9484779318491379	0.12902667336977722	0.4206742524645311	0.9891800304080782	0.07846119509641074	0.45049170929987103	1.0144592382496718
3	0.05084745762711865	0.2146433935205025	0.5723061938558223	0.9290112069061036	0.2162282587065683	0.8045732890617127	1.3222783776512248	0.20616891444753288	1.022843724856859	1.721551198101784	0.1855187802448798	0.8942745476077273	1.799993832103156	0.24931337141024978	0.889305751947618	1.7929917285697874	0.192174313368178	1.1561177995935095	1.7777523030317612	-0.003882708498378529	0.608724790513074	0.9341681518934775	0.02053583844613868	0.8041470924201852	1.3284172805733259	0.009658992974274175	1.0570883443116716	1.7373139781769615	0.024810460748077343	0.862753198365809	1.7897500994760127	-0.03276947204612652	0.9176572302099825	1.7912932190364836	0.03130426651449031	1.134325210883645	1.7868167052913864	0.08357987319510163	0.3852949701408176	0.31858263936511233	0.07844116181319218	0.2634381403084115	0.09869168876771296	0.08245056230993991	0.2059340742055545	0.2558974512763917	0.2590244149460132	0.40320702623010346	0.4186545168292796	0.28850681050703914	0.45780529875921827	0.6950725633016621	0.12354101428284565	0.4184527194263839	0.9096139857548486	0.0830257261631372	0.4212021354128038	0.996016188425568	0.06928664565516303	0.4757478257977486	1.0047514401921231	0.0691635594867307	0.4752907400669616	1.000696298438531	-0.09519628251790184	0.42941420747742387	0.40640225987605433	-0.1211946325767766	0.5032702241179543	0.688313779071876	0.023836828439060053	0.4013999842319456	0.9052602321018518	0.12712545011531265	0.3837537673745884	0.9488987209937008	0.1290087148216411	0.4206967455756716	0.9893053617096969	0.07470960986373687	0.46321145152167775	1.014256691694972
